<?xml version="1.0" encoding="UTF-8"?>
<svg version="1.1" xmlns="http://www.w3.org/2000/svg" width="500" height="500">
<path d="M0 0 C0.85163727 -0.00960754 1.70327454 -0.01921509 2.58071899 -0.02911377 C3.95881241 -0.03548859 3.95881241 -0.03548859 5.36474609 -0.04199219 C6.31578217 -0.04769226 7.26681824 -0.05339233 8.24667358 -0.05926514 C10.26241952 -0.06871527 12.27818091 -0.07524917 14.29394531 -0.07910156 C17.35558682 -0.08876431 20.41654461 -0.11976988 23.47802734 -0.15136719 C25.44026296 -0.15790189 27.40250336 -0.16315052 29.36474609 -0.16699219 C30.27132965 -0.17933899 31.17791321 -0.19168579 32.11196899 -0.20440674 C40.66512874 -0.17492093 47.88763124 1.53851786 54.25927734 7.48144531 C58.85447692 12.61374614 60.84830283 18.04539954 60.95605469 24.86279297 C60.97211761 25.79121002 60.98818054 26.71962708 61.00473022 27.67617798 C61.04953319 31.92457088 61.09026218 36.17281226 61.11328125 40.42138672 C61.1298041 42.65391491 61.15704516 44.886391 61.1953125 47.11865234 C61.25043262 50.354443 61.27201135 53.58899666 61.28662109 56.82519531 C61.30929047 57.81097565 61.33195984 58.79675598 61.35531616 59.81240845 C61.33182235 67.62157061 59.305546 74.11789183 54.08694458 80.0743866 C44.83137538 89.0387506 31.81182832 87.61572888 19.90136719 87.67236328 C7.55883151 87.74801148 7.55883151 87.74801148 -4.23681641 91.16113281 C-5.22681641 91.49113281 -6.21681641 91.82113281 -7.23681641 92.16113281 C-7.23681641 92.82113281 -7.23681641 93.48113281 -7.23681641 94.16113281 C-7.99994141 94.84175781 -8.76306641 95.52238281 -9.54931641 96.22363281 C-15.96489137 103.23600545 -15.88890615 111.97312112 -15.58447266 121.04785156 C-15.20613649 126.98596659 -13.8886455 132.44462496 -9.63525391 136.80175781 C-8.21192809 137.97549569 -6.72882314 139.07603701 -5.23681641 140.16113281 C-5.23681641 140.82113281 -5.23681641 141.48113281 -5.23681641 142.16113281 C2.68811225 144.20997683 10.1663782 144.50924392 18.32373047 144.55175781 C27.32029747 144.76667249 33.54015452 147.44903138 40.22412109 153.44628906 C46.90270738 160.88765805 47.00523188 169.66756357 47.05834961 179.13769531 C47.06981975 180.55934644 47.09019248 181.9809562 47.11987305 183.40234375 C47.35468102 194.65738516 46.22858224 203.15808038 38.39990234 211.65722656 C30.38816242 219.01884916 20.76428874 218.36680371 10.51318359 218.41113281 C9.33626953 218.43175781 8.15935547 218.45238281 6.94677734 218.47363281 C-3.37602434 218.51956296 -11.87591477 217.43143013 -19.54541016 210.13378906 C-23.97372391 204.96912752 -26.34039481 198.96491668 -26.37744141 192.18847656 C-26.39677734 191.20556641 -26.41611328 190.22265625 -26.43603516 189.20996094 C-26.46943991 187.16327735 -26.48808313 185.11629041 -26.49072266 183.06933594 C-26.68857391 175.05636016 -28.48846466 168.24851857 -34.02099609 162.21557617 C-40.44687374 156.17399865 -47.2780623 155.81913925 -55.73681641 155.84863281 C-56.66107422 155.83251953 -57.58533203 155.81640625 -58.53759766 155.79980469 C-63.93561619 155.79594344 -67.49572743 156.31797977 -72.23681641 159.16113281 C-72.89681641 159.16113281 -73.55681641 159.16113281 -74.23681641 159.16113281 C-74.23681641 159.82113281 -74.23681641 160.48113281 -74.23681641 161.16113281 C-74.89681641 161.16113281 -75.55681641 161.16113281 -76.23681641 161.16113281 C-76.23681641 161.82113281 -76.23681641 162.48113281 -76.23681641 163.16113281 C-76.89681641 163.16113281 -77.55681641 163.16113281 -78.23681641 163.16113281 C-78.52556641 163.90363281 -78.81431641 164.64613281 -79.11181641 165.41113281 C-80.23681641 168.16113281 -80.23681641 168.16113281 -81.28564453 169.9362793 C-82.54005551 172.87042899 -82.5275632 175.3215146 -82.58056641 178.50878906 C-82.62503906 180.37760742 -82.62503906 180.37760742 -82.67041016 182.28417969 C-82.70328125 184.23420898 -82.70328125 184.23420898 -82.73681641 186.22363281 C-83.14657472 210.02577029 -83.14657472 210.02577029 -89.23681641 219.16113281 C-89.89681641 219.16113281 -90.55681641 219.16113281 -91.23681641 219.16113281 C-91.23681641 219.82113281 -91.23681641 220.48113281 -91.23681641 221.16113281 C-93.10009766 222.63378906 -93.10009766 222.63378906 -95.54931641 224.22363281 C-96.34982422 224.75085938 -97.15033203 225.27808594 -97.97509766 225.82128906 C-101.23104131 227.75011233 -103.83607766 228.29137978 -107.54956055 228.35400391 C-108.41799088 228.37006683 -109.2864212 228.38612976 -110.1811676 228.40267944 C-114.16739949 228.44742887 -118.15346752 228.48823246 -122.13989258 228.51123047 C-124.23375608 228.52773415 -126.32756456 228.55494958 -128.42114258 228.59326172 C-131.45504709 228.64844543 -134.48763165 228.66997199 -137.52197266 228.68457031 C-138.44526871 228.70723969 -139.36856476 228.72990906 -140.31983948 228.75326538 C-148.552722 228.72691599 -155.07570292 226.11608672 -161.11181641 220.47363281 C-167.54298128 210.44858169 -167.83926177 201.42535868 -167.70336914 189.8112793 C-167.67434287 187.10110381 -167.68280249 184.39288262 -167.69580078 181.68261719 C-167.68956341 179.93456095 -167.68117248 178.1865108 -167.67041016 176.43847656 C-167.67481361 175.24278297 -167.67481361 175.24278297 -167.67930603 174.02293396 C-167.55265606 166.35580933 -165.85175682 159.16000705 -160.61181641 153.34863281 C-159.69529297 152.28708984 -159.69529297 152.28708984 -158.76025391 151.20410156 C-150.25927909 144.32173341 -141.17010882 144.59058775 -130.73681641 144.59863281 C-117.71192392 144.64056675 -117.71192392 144.64056675 -105.23681641 141.16113281 C-104.24681641 140.83113281 -103.25681641 140.50113281 -102.23681641 140.16113281 C-102.23681641 139.50113281 -102.23681641 138.84113281 -102.23681641 138.16113281 C-101.57681641 138.16113281 -100.91681641 138.16113281 -100.23681641 138.16113281 C-94.62867611 127.37624762 -91.74490223 116.28047023 -95.42431641 104.22363281 C-98.10591219 97.48205089 -101.77154688 92.65237836 -108.23681641 89.16113281 C-114.9248874 86.78296123 -121.3675056 86.81072559 -128.41064453 86.77050781 C-136.14589303 86.56886484 -142.36878126 84.57073179 -147.98681641 79.03613281 C-155.17072306 71.03818262 -155.88708451 62.03225264 -155.75830078 51.65649414 C-155.73680566 49.59760321 -155.75821683 47.54218543 -155.78369141 45.48339844 C-155.80467074 35.91963479 -154.45361451 28.23334199 -148.04931641 20.84863281 C-147.54013672 20.23375 -147.03095703 19.61886719 -146.50634766 18.98535156 C-138.99472583 12.94761079 -131.15243213 12.52436246 -121.80761719 12.63964844 C-119.73985564 12.66110128 -117.6755665 12.63976627 -115.60791016 12.61425781 C-106.38484933 12.59506317 -99.36501435 13.89682114 -91.92431641 19.47363281 C-84.85660759 26.54134163 -83.37640984 34.26397429 -83.03759766 43.96972656 C-82.99058716 45.27744019 -82.99058716 45.27744019 -82.94262695 46.61157227 C-82.88984943 48.358333 -82.85534663 50.10576805 -82.84155273 51.85327148 C-82.68292063 57.89957231 -81.26922719 61.97340817 -78.23681641 67.16113281 C-77.91148926 67.87285645 -77.58616211 68.58458008 -77.25097656 69.31787109 C-75.78786595 71.97711161 -74.06868859 72.23912792 -71.23681641 73.16113281 C-70.45991455 73.50225098 -69.6830127 73.84336914 -68.88256836 74.19482422 C-64.4723458 75.80557082 -60.07485437 75.5299609 -55.42431641 75.53613281 C-53.98475586 75.57287109 -53.98475586 75.57287109 -52.51611328 75.61035156 C-45.17762348 75.64040681 -39.90572073 74.25339206 -34.24853516 69.48535156 C-33.81154297 68.94523437 -33.37455078 68.40511719 -32.92431641 67.84863281 C-32.47443359 67.31625 -32.02455078 66.78386719 -31.56103516 66.23535156 C-27.8051277 60.35220448 -26.81517903 55.57476786 -26.90087891 48.73535156 C-26.88836387 47.11750903 -26.87532663 45.49967047 -26.86181641 43.88183594 C-26.85789953 41.36744862 -26.86178823 38.85346032 -26.87646484 36.33911133 C-26.94710332 16.33861048 -26.94710332 16.33861048 -19.49414062 8.27587891 C-14.24490645 3.28416026 -7.27807745 0.06645035 0 0 Z M-1.65478516 37.74316406 C-3.51056856 40.09794556 -3.51056856 40.09794556 -3.23681641 43.16113281 C-3.89681641 43.16113281 -4.55681641 43.16113281 -5.23681641 43.16113281 C-6.85852424 47.46190198 -7.55757764 51.12960891 -7.61181641 55.72363281 C-7.64017578 56.81804687 -7.66853516 57.91246094 -7.69775391 59.04003906 C-7.13731173 62.83489754 -5.87921905 64.43585038 -3.23681641 67.16113281 C1.0420985 69.77602526 5.04671854 69.21481118 9.76318359 68.16113281 C12.80351967 67.26413925 15.78871407 66.25590285 18.76318359 65.16113281 C18.76318359 64.50113281 18.76318359 63.84113281 18.76318359 63.16113281 C19.32392578 63.07734375 19.88466797 62.99355469 20.46240234 62.90722656 C28.98421301 60.14378711 35.26250318 50.43242708 39.76318359 43.16113281 C40.38193359 42.19175781 41.00068359 41.22238281 41.63818359 40.22363281 C43.65192925 34.74176963 44.71925119 28.80437851 42.70068359 23.22363281 C39.09267594 19.38285047 36.31679857 17.36828148 31.01318359 16.66113281 C17.28440913 17.49475859 6.51030759 27.60472141 -1.65478516 37.74316406 Z " fill="#E1E1E1" transform="translate(302.23681640625,135.8388671875)"/>
<path d="M0 0 C0.66 0 1.32 0 2 0 C2.350625 1.093125 2.70125 2.18625 3.0625 3.3125 C4.37683541 6.46435287 5.53564713 7.62316459 8.6875 8.9375 C9.780625 9.288125 10.87375 9.63875 12 10 C12 10.66 12 11.32 12 12 C10.906875 12.350625 9.81375 12.70125 8.6875 13.0625 C5.53564713 14.37683541 4.37683541 15.53564713 3.0625 18.6875 C2.711875 19.780625 2.36125 20.87375 2 22 C1.34 22 0.68 22 0 22 C-0.66 19.69 -1.32 17.38 -2 15 C-2.66 15 -3.32 15 -4 15 C-4 14.34 -4 13.68 -4 13 C-5.65 13 -7.3 13 -9 13 C-9.33 12.01 -9.66 11.02 -10 10 C-8.906875 9.649375 -7.81375 9.29875 -6.6875 8.9375 C-3.53564713 7.62316459 -2.37683541 6.46435287 -1.0625 3.3125 C-0.711875 2.219375 -0.36125 1.12625 0 0 Z " fill="#B9B9B9" transform="translate(319,168)"/>
<path d="M0 0 C0.37745361 0.48251221 0.75490723 0.96502441 1.14379883 1.4621582 C4.1537199 3.95584397 7.65500207 3.36575537 11.38671875 3.29296875 C12.20372757 3.28872391 13.02073639 3.28447906 13.86250305 3.28010559 C16.47117107 3.26331691 19.07906562 3.22566519 21.6875 3.1875 C23.45636905 3.17245337 25.22525021 3.15876492 26.99414062 3.14648438 C31.32972496 3.11341286 35.66473136 3.0616299 40 3 C39.67 3.66 39.34 4.32 39 5 C32.66278645 6.44857196 26.21530131 6.22204194 19.75 6.25 C18.57308594 6.270625 17.39617187 6.29125 16.18359375 6.3125 C9.1475409 6.34380613 2.47371316 6.02808372 -4 3 C-4.33 2.34 -4.66 1.68 -5 1 C-2.6875 0.3125 -2.6875 0.3125 0 0 Z " fill="#757575" transform="translate(293,348)"/>
<path d="M0 0 C0.99 0.33 1.98 0.66 3 1 C2.67 3.31 2.34 5.62 2 8 C-0.97 7.505 -0.97 7.505 -4 7 C-2.68 4.69 -1.36 2.38 0 0 Z M-6 8 C-5.67 9.32 -5.34 10.64 -5 12 C-5.99 12.33 -6.98 12.66 -8 13 C-8 10 -8 10 -6 8 Z " fill="#EDEDEB" transform="translate(340,183)"/>
<path d="M0 0 C0.66 0.33 1.32 0.66 2 1 C0.68 3.64 -0.64 6.28 -2 9 C-2.66 9 -3.32 9 -4 9 C-3.34 10.98 -2.68 12.96 -2 15 C-2.66 15 -3.32 15 -4 15 C-4 14.34 -4 13.68 -4 13 C-5.65 13 -7.3 13 -9 13 C-9.33 12.01 -9.66 11.02 -10 10 C-8.906875 9.649375 -7.81375 9.29875 -6.6875 8.9375 C-3.53564713 7.62316459 -2.37683541 6.46435287 -1.0625 3.3125 C-0.711875 2.219375 -0.36125 1.12625 0 0 Z " fill="#656565" transform="translate(319,168)"/>
<path d="M0 0 C1.13598633 0.00483398 1.13598633 0.00483398 2.29492188 0.00976562 C3.47344727 0.02233398 3.47344727 0.02233398 4.67578125 0.03515625 C5.47306641 0.03966797 6.27035156 0.04417969 7.09179688 0.04882812 C9.05732382 0.06059775 11.0228121 0.07853277 12.98828125 0.09765625 C12.98828125 0.42765625 12.98828125 0.75765625 12.98828125 1.09765625 C11.951875 1.14664063 10.91546875 1.195625 9.84765625 1.24609375 C8.47783917 1.32115222 7.10804877 1.39669872 5.73828125 1.47265625 C5.05636719 1.50359375 4.37445313 1.53453125 3.671875 1.56640625 C-0.0865581 1.7853441 -2.71056271 2.35622073 -6.01171875 4.09765625 C-7.00171875 3.76765625 -7.99171875 3.43765625 -9.01171875 3.09765625 C-6.18838543 0.27432293 -3.82529272 -0.0287616 0 0 Z " fill="#F5F5F5" transform="translate(173.01171875,149.90234375)"/>
<path d="M0 0 C0.66 0.33 1.32 0.66 2 1 C-1.3 3.64 -4.6 6.28 -8 9 C-8.66 7.68 -9.32 6.36 -10 5 C-7.30040523 3.20027015 -5.98962454 2.74740613 -3 2 C-2.01 1.34 -1.02 0.68 0 0 Z " fill="#717171" transform="translate(315,158)"/>
<path d="M0 0 C0 1.65 0 3.3 0 5 C-1.65 5.33 -3.3 5.66 -5 6 C-5 4.35 -5 2.7 -5 1 C-3 0 -3 0 0 0 Z " fill="#C3C3C3" transform="translate(321,201)"/>
<path d="M0 0 C0.928125 0.28875 1.85625 0.5775 2.8125 0.875 C3.1425 1.535 3.4725 2.195 3.8125 2.875 C2.86375 2.83375 1.915 2.7925 0.9375 2.75 C-2.28994856 2.52526182 -2.28994856 2.52526182 -4.1875 4.875 C-5.1775 4.545 -6.1675 4.215 -7.1875 3.875 C-4.77874577 0.81773502 -4.00321103 -0.15698867 0 0 Z " fill="#EFEFEF" transform="translate(162.1875,154.125)"/>
<path d="M0 0 C1.65 1.65 3.3 3.3 5 5 C1.28111761 4.49287967 -1.73454239 3.88391785 -5 2 C-4.01 1.67 -3.02 1.34 -2 1 C-1.34 0.67 -0.68 0.34 0 0 Z " fill="#8F8F8F" transform="translate(293,348)"/>
<path d="M0 0 C2.631724 2.45627573 4.81527263 4.55352037 6 8 C5.625 10.25 5.625 10.25 5 12 C4.67 10.35 4.34 8.7 4 7 C3.01 6.67 2.02 6.34 1 6 C0.67 4.02 0.34 2.04 0 0 Z " fill="#7B7B7B" transform="translate(211,157)"/>
<path d="M0 0 C2.97 0 5.94 0 9 0 C8.67 1.65 8.34 3.3 8 5 C5.36 3.68 2.72 2.36 0 1 C0 0.67 0 0.34 0 0 Z " fill="#A7A7A7" transform="translate(260,292)"/>
<path d="M0 0 C0.66 0 1.32 0 2 0 C1.8125 1.875 1.8125 1.875 1 4 C-1.5625 5.25 -1.5625 5.25 -4 6 C-3.34 4.68 -2.68 3.36 -2 2 C-1.34 2 -0.68 2 0 2 C0 1.34 0 0.68 0 0 Z " fill="#A0A0A0" transform="translate(206,356)"/>
<path d="M0 0 C0.75 1.6875 0.75 1.6875 1 4 C-0.9375 6.75 -0.9375 6.75 -3 9 C-2.5020163 5.26512223 -2.12508244 3.18762365 0 0 Z " fill="#9D9D9D" transform="translate(139,293)"/>
<path d="M0 0 C3.3 0 6.6 0 10 0 C9.34 1.32 8.68 2.64 8 4 C7.34 3.34 6.68 2.68 6 2 C4.01178687 1.60235737 2.01055661 1.26224651 0 1 C0 0.67 0 0.34 0 0 Z " fill="#F2F2F2" transform="translate(318,282)"/>
<path d="M0 0 C0.66 0 1.32 0 2 0 C2 0.66 2 1.32 2 2 C1.01 1.67 0.02 1.34 -1 1 C-0.67 0.67 -0.34 0.34 0 0 Z M-3 3 C-2.67 4.32 -2.34 5.64 -2 7 C-2.99 7.33 -3.98 7.66 -5 8 C-5 5 -5 5 -3 3 Z " fill="#F3F3F2" transform="translate(337,188)"/>
<path d="M0 0 C0 2.64 0 5.28 0 8 C-3.875 3.25 -3.875 3.25 -5 1 C-3 0 -3 0 0 0 Z " fill="#898989" transform="translate(346,154)"/>
</svg>
