<?xml version="1.0" encoding="UTF-8"?>
<svg version="1.1" xmlns="http://www.w3.org/2000/svg" width="2000" height="2000">
<path d="M0 0 C1.81779799 -0.00165283 3.63559563 -0.00374055 5.45339268 -0.0062201 C10.43553017 -0.01175546 15.41765036 -0.01112011 20.39978992 -0.00944251 C25.82531913 -0.00870866 31.25084358 -0.0137408 36.67637074 -0.01801753 C47.4315943 -0.02558291 58.18681289 -0.02778985 68.94203883 -0.02834659 C81.82757242 -0.02926168 94.71310143 -0.0359336 107.59863303 -0.04269341 C138.00274633 -0.05836069 168.40685899 -0.06444046 198.81097562 -0.06910044 C214.28946583 -0.07148608 229.76795561 -0.07519006 245.24644549 -0.07913754 C294.93212478 -0.09180138 344.61780406 -0.10258446 394.30348495 -0.10597799 C396.67713046 -0.10614023 399.05077597 -0.10630579 401.42442148 -0.10647238 C406.18456466 -0.10680617 410.94470785 -0.10713665 415.70485103 -0.10746694 C421.27746264 -0.10785383 426.85007424 -0.10824344 432.42268585 -0.108638 C434.01759434 -0.10875042 435.61250283 -0.10886184 437.20741133 -0.10897225 C488.40115932 -0.11251964 539.59489325 -0.12759003 590.78863588 -0.15091 C627.58506395 -0.16766486 664.38148936 -0.18313226 701.1779213 -0.18764496 C701.93559004 -0.18773844 702.69325878 -0.18783193 703.47388719 -0.18792825 C720.11151033 -0.18994787 736.74913344 -0.19110344 753.3867567 -0.19145683 C759.34106765 -0.19159299 765.2953786 -0.19180198 771.24968954 -0.19205009 C772.73086082 -0.19211165 774.2120321 -0.19216997 775.69320337 -0.19222504 C799.23981676 -0.19314271 822.78641543 -0.20308511 846.33302399 -0.21768252 C870.7335309 -0.23274867 895.13401729 -0.23686237 919.53452776 -0.22858956 C933.58290527 -0.22414631 947.6312225 -0.22794152 961.67959204 -0.24382807 C971.08419265 -0.25362628 980.48875135 -0.25235393 989.89335163 -0.24239184 C995.23837137 -0.2370345 1000.58327594 -0.23617613 1005.92828582 -0.24890056 C1029.40268888 -0.30131434 1052.45706943 0.29585899 1075.7810688 3.13142776 C1076.68262521 3.24098788 1077.58418163 3.35054799 1078.51305793 3.46342811 C1082.97279537 4.01714409 1087.40883851 4.65423243 1091.8435688 5.38142776 C1092.48264168 5.48436142 1093.12171455 5.58729507 1093.78015327 5.69334793 C1141.46814515 13.41627819 1187.34662803 28.06991623 1230.7810688 49.13142776 C1232.63126409 50.01047111 1234.48152263 50.88938134 1236.33185005 51.76814651 C1257.77150787 62.08750537 1278.29078547 74.49858463 1297.7810688 88.13142776 C1298.89119331 88.90583206 1298.89119331 88.90583206 1300.02374458 89.69588089 C1310.99424263 97.38808101 1321.49651414 105.54822137 1331.7810688 114.13142776 C1332.64490181 114.84661575 1332.64490181 114.84661575 1333.52618599 115.57625198 C1334.08209419 116.03660843 1334.6380024 116.49696487 1335.2107563 116.97127151 C1335.68883736 117.36693314 1336.16691841 117.76259476 1336.65948677 118.17024612 C1348.11098143 127.81515546 1358.922342 138.10197632 1369.48565865 148.70564651 C1371.17282838 150.39824123 1372.86537076 152.08533373 1374.55841255 153.77205276 C1380.17920038 159.3890947 1385.65739399 165.05044855 1390.7810688 171.13142776 C1391.65778394 172.14131483 1392.5353402 173.15047253 1393.4138813 174.15877151 C1400.88931791 182.88792555 1407.91116972 191.91974704 1414.7810688 201.13142776 C1415.32553658 201.86023148 1415.87000435 202.58903519 1416.43097115 203.33992386 C1424.79595393 214.58852627 1432.48558127 226.16375103 1439.7810688 238.13142776 C1440.42423042 239.18016068 1440.42423042 239.18016068 1441.08038521 240.25008011 C1448.59255554 252.55151549 1455.28671546 265.26834955 1461.7810688 278.13142776 C1462.25189888 279.06229202 1462.72272896 279.99315628 1463.20782661 280.95222855 C1494.92212642 344.14747137 1512.99169463 416.54360171 1512.91249657 487.35035896 C1512.9141494 489.16815696 1512.91623712 490.98595459 1512.91871667 492.80375165 C1512.92425203 497.78588913 1512.92361668 502.76800932 1512.92193908 507.75014888 C1512.92120523 513.1756781 1512.92623737 518.60120255 1512.9305141 524.0267297 C1512.93807947 534.78195326 1512.94028641 545.53717185 1512.94084315 556.2923978 C1512.94175825 569.17793138 1512.94843017 582.06346039 1512.95518998 594.948992 C1512.97085726 625.35310529 1512.97693702 655.75721796 1512.98159701 686.16133458 C1512.98398265 701.63982479 1512.98768663 717.11831457 1512.9916341 732.59680445 C1513.00429795 782.28248375 1513.01508103 831.96816303 1513.01847456 881.65384391 C1513.0186368 884.02748942 1513.01880236 886.40113493 1513.01896895 888.77478044 C1513.01930273 893.53492362 1513.01963321 898.29506681 1513.0199635 903.05520999 C1513.02035039 908.6278216 1513.02074 914.20043321 1513.02113457 919.77304481 C1513.02124699 921.3679533 1513.02135841 922.9628618 1513.02146882 924.55777029 C1513.02501621 975.75151828 1513.04008659 1026.94525222 1513.06340656 1078.13899484 C1513.08016143 1114.93542292 1513.09562883 1151.73184833 1513.10014153 1188.52828026 C1513.10028175 1189.66478337 1513.10028175 1189.66478337 1513.10042482 1190.82424615 C1513.10244444 1207.4618693 1513.10360001 1224.0994924 1513.1039534 1240.73711566 C1513.10408956 1246.69142661 1513.10429855 1252.64573756 1513.10454665 1258.60004851 C1513.10460821 1260.08121978 1513.10466654 1261.56239106 1513.1047216 1263.04356234 C1513.10563928 1286.59017573 1513.11558167 1310.13677439 1513.13017909 1333.68338295 C1513.14524524 1358.08388987 1513.14935893 1382.48437625 1513.14108613 1406.88488673 C1513.13664288 1420.93326423 1513.14043809 1434.98158146 1513.15632464 1449.029951 C1513.16612285 1458.43455161 1513.1648505 1467.83911031 1513.15488841 1477.2437106 C1513.14953107 1482.58873033 1513.1486727 1487.9336349 1513.16139713 1493.27864479 C1513.21381091 1516.75304784 1512.61663758 1539.80742839 1509.7810688 1563.13142776 C1509.67150869 1564.03298418 1509.56194857 1564.93454059 1509.44906846 1565.8634169 C1508.89535248 1570.32315433 1508.25826414 1574.75919747 1507.5310688 1579.19392776 C1507.42813515 1579.83300064 1507.32520149 1580.47207352 1507.21914864 1581.13051224 C1499.49621838 1628.81850412 1484.84258034 1674.69698699 1463.7810688 1718.13142776 C1462.90202546 1719.98162305 1462.02311523 1721.83188159 1461.14435005 1723.68220901 C1450.8249912 1745.12186683 1438.41391194 1765.64114443 1424.7810688 1785.13142776 C1424.26479927 1785.87151077 1423.74852974 1786.61159378 1423.21661568 1787.37410355 C1415.52441556 1798.34460159 1407.3642752 1808.84687311 1398.7810688 1819.13142776 C1398.30427681 1819.70731644 1397.82748482 1820.28320511 1397.33624458 1820.87654495 C1396.64570992 1821.71040726 1396.64570992 1821.71040726 1395.94122505 1822.56111526 C1395.54556343 1823.03919632 1395.14990181 1823.51727737 1394.74225044 1824.00984573 C1385.09734111 1835.46134039 1374.81052024 1846.27270096 1364.20685005 1856.83601761 C1362.51425533 1858.52318734 1360.82716283 1860.21572972 1359.1404438 1861.90877151 C1353.52340186 1867.52955934 1347.86204802 1873.00775295 1341.7810688 1878.13142776 C1340.77118174 1879.00814291 1339.76202404 1879.88569916 1338.75372505 1880.76424026 C1330.02457102 1888.23967687 1320.99274953 1895.26152868 1311.7810688 1902.13142776 C1311.05226509 1902.67589554 1310.32346138 1903.22036331 1309.57257271 1903.78133011 C1298.3239703 1912.1463129 1286.74874553 1919.83594023 1274.7810688 1927.13142776 C1273.73233589 1927.77458939 1273.73233589 1927.77458939 1272.66241646 1928.43074417 C1260.36098108 1935.9429145 1247.64414702 1942.63707442 1234.7810688 1949.13142776 C1233.85020454 1949.60225784 1232.91934029 1950.07308792 1231.96026802 1950.55818558 C1168.7650252 1982.27248539 1096.36889486 2000.34205359 1025.5621376 2000.26285553 C1023.74433961 2000.26450836 1021.92654197 2000.26659608 1020.10874492 2000.26907563 C1015.12660744 2000.27461099 1010.14448725 2000.27397564 1005.16234768 2000.27229804 C999.73681847 2000.27156419 994.31129402 2000.27659633 988.88576686 2000.28087306 C978.1305433 2000.28843843 967.37532471 2000.29064538 956.62009877 2000.29120212 C943.73456519 2000.29211721 930.84903618 2000.29878913 917.96350457 2000.30554894 C887.55939128 2000.32121622 857.15527861 2000.32729598 826.75116198 2000.33195597 C811.27267177 2000.33434161 795.794182 2000.33804559 780.31569212 2000.34199307 C730.63001282 2000.35465691 680.94433354 2000.36543999 631.25865266 2000.36883352 C628.88500715 2000.36899576 626.51136164 2000.36916132 624.13771613 2000.36932791 C619.37757294 2000.3696617 614.61742976 2000.36999218 609.85728657 2000.37032247 C604.28467497 2000.37070936 598.71206336 2000.37109896 593.13945176 2000.37149353 C591.54454326 2000.37160595 589.94963477 2000.37171737 588.35472628 2000.37182778 C537.16097829 2000.37537517 485.96724435 2000.39044556 434.77350172 2000.41376553 C397.97707365 2000.43052039 361.18064824 2000.44598779 324.38421631 2000.45050049 C323.62654756 2000.45059397 322.86887882 2000.45068746 322.08825042 2000.45078378 C305.45062727 2000.4528034 288.81300417 2000.45395897 272.1753809 2000.45431236 C266.22106995 2000.45444852 260.26675901 2000.45465751 254.31244806 2000.45490562 C252.83127678 2000.45496718 251.35010551 2000.4550255 249.86893423 2000.45508057 C226.32232084 2000.45599824 202.77572217 2000.46594064 179.22911362 2000.48053805 C154.8286067 2000.4956042 130.42812032 2000.4997179 106.02760984 2000.49144509 C91.97923234 2000.48700184 77.9309151 2000.49079705 63.88254556 2000.5066836 C54.47794495 2000.51648181 45.07338626 2000.51520946 35.66878597 2000.50524737 C30.32376624 2000.49989003 24.97886166 2000.49903166 19.63385178 2000.51175609 C-3.84055128 2000.56416987 -26.89493183 1999.96699654 -50.2189312 1997.13142776 C-51.12048761 1997.02186765 -52.02204402 1996.91230754 -52.95092033 1996.79942742 C-57.41065776 1996.24571144 -61.84670091 1995.6086231 -66.2814312 1994.88142776 C-66.92050407 1994.77849411 -67.55957695 1994.67556046 -68.21801567 1994.5695076 C-115.90600755 1986.84657734 -161.78449042 1972.1929393 -205.2189312 1951.13142776 C-207.06912649 1950.25238442 -208.91938502 1949.37347419 -210.76971245 1948.49470901 C-232.20937026 1938.17535016 -252.72864787 1925.7642709 -272.2189312 1912.13142776 C-272.95901421 1911.61515823 -273.69909721 1911.0988887 -274.46160698 1910.56697464 C-285.43210502 1902.87477452 -295.93437654 1894.71463416 -306.2189312 1886.13142776 C-306.79481987 1885.65463577 -307.37070854 1885.17784378 -307.96404839 1884.68660355 C-308.79791069 1883.99606888 -308.79791069 1883.99606888 -309.6486187 1883.29158401 C-310.12669975 1882.89592239 -310.60478081 1882.50026077 -311.09734917 1882.09260941 C-322.54884383 1872.44770007 -333.3602044 1862.16087921 -343.92352104 1851.55720901 C-345.61069078 1849.8646143 -347.30323315 1848.1775218 -348.99627495 1846.49080276 C-354.61706278 1840.87376083 -360.09525638 1835.21240698 -365.2189312 1829.13142776 C-366.09564634 1828.1215407 -366.97320259 1827.112383 -367.8517437 1826.10408401 C-375.3271803 1817.37492998 -382.34903212 1808.34310849 -389.2189312 1799.13142776 C-389.76339897 1798.40262405 -390.30786674 1797.67382034 -390.86883354 1796.92293167 C-399.23381633 1785.67432926 -406.92344367 1774.0991045 -414.2189312 1762.13142776 C-414.86209282 1761.08269485 -414.86209282 1761.08269485 -415.5182476 1760.01277542 C-423.03041794 1747.71134004 -429.72457785 1734.99450598 -436.2189312 1722.13142776 C-436.68976128 1721.20056351 -437.16059135 1720.26969925 -437.64568901 1719.31062698 C-469.35998882 1656.11538416 -487.42955702 1583.71925382 -487.35035896 1512.91249657 C-487.35201179 1511.09469857 -487.35409951 1509.27690094 -487.35657907 1507.45910388 C-487.36211442 1502.4769664 -487.36147908 1497.49484621 -487.35980147 1492.51270665 C-487.35906763 1487.08717743 -487.36409976 1481.66165298 -487.36837649 1476.23612583 C-487.37594187 1465.48090227 -487.37814881 1454.72568368 -487.37870555 1443.97045773 C-487.37962065 1431.08492415 -487.38629257 1418.19939514 -487.39305237 1405.31386353 C-487.40871966 1374.90975024 -487.41479942 1344.50563757 -487.4194594 1314.10152095 C-487.42184504 1298.62303074 -487.42554903 1283.14454096 -487.4294965 1267.66605108 C-487.44216035 1217.98037178 -487.45294343 1168.2946925 -487.45633696 1118.60901162 C-487.4564992 1116.23536611 -487.45666475 1113.8617206 -487.45683134 1111.48807509 C-487.45716513 1106.72793191 -487.45749561 1101.96778872 -487.4578259 1097.20764554 C-487.45821279 1091.63503393 -487.4586024 1086.06242232 -487.45899696 1080.48981072 C-487.45910938 1078.89490223 -487.4592208 1077.29999373 -487.45933122 1075.70508524 C-487.46287861 1024.51133725 -487.47794899 973.31760331 -487.50126896 922.12386069 C-487.51802383 885.32743261 -487.53349122 848.5310072 -487.53800392 811.73457527 C-487.53809741 810.97690653 -487.53819089 810.21923778 -487.53828721 809.43860938 C-487.54030684 792.80098623 -487.5414624 776.16336313 -487.5418158 759.52573987 C-487.54195196 753.57142892 -487.54216094 747.61711797 -487.54240905 741.66280702 C-487.54247061 740.18163575 -487.54252893 738.70046447 -487.542584 737.21929319 C-487.54350167 713.6726798 -487.55344407 690.12608114 -487.56804149 666.57947258 C-487.58310764 642.17896566 -487.58722133 617.77847928 -487.57894853 593.3779688 C-487.57450527 579.3295913 -487.57830048 565.28127407 -487.59418703 551.23290453 C-487.60398524 541.82830392 -487.60271289 532.42374522 -487.59275081 523.01914493 C-487.58739346 517.6741252 -487.5865351 512.32922062 -487.59925953 506.98421074 C-487.6516733 483.50980769 -487.05449997 460.45542714 -484.2189312 437.13142776 C-484.05459103 435.77909315 -484.05459103 435.77909315 -483.88693085 434.39943863 C-483.33321488 429.9397012 -482.69612653 425.50365805 -481.9689312 421.06892776 C-481.86599754 420.42985489 -481.76306389 419.79078201 -481.65701103 419.13234329 C-473.93408078 371.44435141 -459.28044274 325.56586854 -438.2189312 282.13142776 C-437.33988785 280.28123248 -436.46097762 278.43097394 -435.58221245 276.58064651 C-425.2628536 255.1409887 -412.85177433 234.6217111 -399.2189312 215.13142776 C-398.4445269 214.02130325 -398.4445269 214.02130325 -397.65447807 212.88875198 C-389.96227795 201.91825394 -381.8021376 191.41598242 -373.2189312 181.13142776 C-372.74213921 180.55553909 -372.26534721 179.97965042 -371.77410698 179.38631058 C-371.31375053 178.83040237 -370.85339409 178.27449417 -370.37908745 177.70174026 C-369.78559502 176.98461868 -369.78559502 176.98461868 -369.18011284 176.2530098 C-359.5352035 164.80151514 -349.24838264 153.99015457 -338.64471245 143.42683792 C-336.95211773 141.73966819 -335.26502523 140.04712581 -333.5783062 138.35408401 C-327.96126426 132.73329619 -322.29991041 127.25510258 -316.2189312 122.13142776 C-315.20904414 121.25471262 -314.19988643 120.37715637 -313.19158745 119.49861526 C-304.46243342 112.02317866 -295.43061192 105.00132685 -286.2189312 98.13142776 C-285.49012749 97.58695999 -284.76132378 97.04249222 -284.0104351 96.48152542 C-272.76183269 88.11654263 -261.18660793 80.4269153 -249.2189312 73.13142776 C-248.51977592 72.70265335 -247.82062065 72.27387894 -247.10027885 71.83211136 C-234.79884347 64.31994103 -222.08200941 57.62578111 -209.2189312 51.13142776 C-208.28806694 50.66059769 -207.35720268 50.18976761 -206.39813042 49.70466995 C-143.2028876 17.99037014 -70.80675725 -0.07919806 0 0 Z " fill="#000000" transform="translate(487.2189311981201,-0.13142776489257813)"/>
<path d="M0 0 C0.87207376 0.05431104 1.74414751 0.10862208 2.64264774 0.16457891 C20.90531576 1.33436338 39.0454272 3.36516087 57.04663086 6.68408203 C58.258388 6.89573974 59.47014515 7.10739744 60.71862221 7.32546902 C68.32981522 8.87395017 72.76864907 11.23265294 78.0625 16.875 C79.13747398 17.91099173 80.21509 18.94425071 81.29563904 19.97442627 C82.3537622 21.02377636 83.40935054 22.07568744 84.46264648 23.12988281 C85.04742264 23.71130035 85.63219879 24.2927179 86.23469543 24.89175415 C88.13693641 26.78461416 90.03549687 28.68111009 91.93359375 30.578125 C93.26490705 31.90622045 94.59629357 33.2342425 95.92774963 34.56219482 C98.70222188 37.33071077 101.47465164 40.10125368 104.24584961 42.87304688 C107.80066697 46.42796651 111.36235372 49.97591836 114.9257803 53.52220535 C117.67003614 56.25536834 120.40976102 58.99303811 123.14821053 61.73201752 C124.46035611 63.04298207 125.7741258 64.35232313 127.08953667 65.66001129 C128.92049614 67.48121128 130.74505635 69.30859147 132.56811523 71.13769531 C133.11299591 71.67695648 133.65787659 72.21621765 134.2192688 72.77182007 C139.12353147 77.7176684 139.22015058 81.53372737 139.26782227 88.2277832 C139.27772186 89.08448105 139.28762146 89.94117889 139.29782104 90.82383728 C139.32964858 93.6911235 139.35438449 96.55842388 139.37890625 99.42578125 C139.39956428 101.47015211 139.42056239 103.51451957 139.44187927 105.55888367 C139.48602896 109.89445705 139.52683199 114.23004537 139.56518555 118.56567383 C139.6034053 122.87463517 139.64479605 127.18353985 139.69018555 131.49243164 C139.70597294 133.03732018 139.70597294 133.03732018 139.72207928 134.61341858 C139.74469164 136.7038911 139.76982864 138.79433776 139.79742908 140.88475037 C139.86356192 146.30411318 139.871546 151.71416428 139.779953 157.13330078 C139.64691849 167.86876772 139.90516298 178.01068735 141.89261055 188.58763027 C145.8808302 210.16160553 147.0576219 230.45171307 134.42953491 249.17507935 C118.21657917 272.14020682 97.54185986 291.71695107 77.38273412 311.14801782 C71.31893499 317.02290538 65.44868679 323.0517285 59.65649414 329.19384766 C-1.1236756 393.5618316 -1.1236756 393.5618316 -38.72053021 394.91019762 C-73.45082064 395.41437147 -73.45082064 395.41437147 -86.09689331 388.03019714 C-96.25385316 370.61897567 -95.08910643 339.6883439 -90.60580379 320.66166586 C-81.6583447 289.04528708 -44.84982961 262.73710128 -21.51902735 241.60985267 C-11.46278006 232.49060529 -1.63955762 223.13045319 8.18554688 213.76367188 C11.63538532 210.47686557 15.08676727 207.19169542 18.54026794 203.90873718 C19.37530332 203.11487317 20.2103387 202.32100915 21.07067817 201.50308865 C26.81781582 196.05210399 32.62335751 190.66872831 38.45838928 185.31208801 C40.74680885 183.20113769 43.03436871 181.0892592 45.3217926 178.97723007 C47.44788162 177.02409194 49.5890557 175.08853742 51.73118591 173.1530304 C52.99695922 171.98567263 54.26199115 170.81751027 55.52613831 169.64839172 C56.40013451 168.87428002 56.40013451 168.87428002 57.29178721 168.0845297 C59.06202204 166.49415405 59.06202204 166.49415405 61.0625 163.875 C61.07927904 160.93089439 60.54690002 159.56715274 58.87582016 157.17936897 C58.37440632 156.67384939 57.87299248 156.16832981 57.35638428 155.64749146 C56.78165878 155.05859634 56.20693329 154.46970123 55.61479187 153.86296082 C54.98104141 153.23416519 54.34729095 152.60536957 53.69433594 151.95751953 C53.02922501 151.28218674 52.36411407 150.60685394 51.67884827 149.91105652 C49.47844969 147.6828675 47.2635116 145.46984029 45.046875 143.2578125 C43.51284184 141.71600712 41.97925813 140.17375443 40.44610596 138.631073 C37.23144026 135.4014845 34.00913226 132.17975749 30.78173828 128.96289062 C26.6406643 124.83342456 22.52280346 120.68163842 18.4107933 116.5232563 C15.25054704 113.33359735 12.07660999 110.15784605 8.89850616 106.98598862 C7.37394015 105.46039366 5.85411503 103.93004607 4.3391037 102.39496231 C2.22281169 100.2540865 0.08843583 98.13305771 -2.05175781 96.01611328 C-2.67741135 95.37517227 -3.30306488 94.73423126 -3.94767761 94.0738678 C-4.5336824 93.50189163 -5.11968719 92.92991547 -5.72344971 92.34060669 C-6.47783262 91.58572055 -6.47783262 91.58572055 -7.2474556 90.81558418 C-8.95628078 89.68690245 -8.95628078 89.68690245 -11.2799139 89.8622179 C-14.9655695 91.26678801 -17.10374137 93.73991945 -19.67292786 96.61390686 C-20.23076499 97.21912703 -20.78860213 97.82434721 -21.36334342 98.44790739 C-22.58566185 99.77618548 -23.8030341 101.1090278 -25.01609421 102.44576645 C-28.39577118 106.16877187 -31.81257981 109.85760441 -35.22212219 113.55323792 C-35.94958826 114.34395884 -36.67705432 115.13467976 -37.42656481 115.94936192 C-46.82158951 126.14886286 -56.40333792 136.17164752 -65.98020327 146.20009816 C-75.27782196 155.93744573 -84.50827151 165.7197821 -93.5480957 175.69750977 C-153.73792002 242.00649407 -153.73792002 242.00649407 -187.7928381 244.03113079 C-202.85137793 244.57489453 -223.84687244 244.73607121 -237.10588074 237.03466797 C-247.59227274 218.94492759 -245.26980245 185.6484153 -240.57557678 166.13193512 C-231.68916984 134.76286628 -200.7731657 107.95237026 -178.37587357 85.83267975 C-174.9814817 82.48002509 -171.61937061 79.09973014 -168.28403854 75.68831635 C-117.54976815 23.80126146 -74.03844912 -4.73037119 0 0 Z " fill="#FEFEFE" transform="translate(692.9375,1157.125)"/>
<path d="M0 0 C3.45643018 -0.03302615 6.91130367 -0.09382248 10.3671782 -0.16349721 C22.51161571 -0.4051126 34.65136442 -0.53041334 46.79810739 -0.55495954 C56.75072202 -0.57802105 66.68052056 -0.78138808 76.62623239 -1.1496861 C168.37310963 -4.47785001 168.37310963 -4.47785001 194.68717402 19.89063936 C220.65134071 45.07195548 220.65134071 45.07195548 221.9834559 57.99852252 C220.92915225 62.51938516 219.21731505 64.38768069 216.04178643 67.65244174 C214.03901696 69.84541874 212.60317014 72.02935687 211.09232736 74.5817287 C201.35002187 90.73075789 187.46713398 108.0850363 168.52404237 113.51496577 C137.97414465 120.47956338 104.24259207 117.35022089 73.19555044 116.2618432 C60.64057491 115.83005706 48.08536621 115.64618529 35.52448845 115.48129749 C20.21012614 115.27870252 4.89798978 115.04188601 -10.41188407 114.61303973 C-11.48410358 114.58306045 -12.55632309 114.55308117 -13.66103411 114.52219343 C-18.68550101 114.37938124 -23.70956008 114.22798748 -28.73343253 114.06563067 C-30.4823691 114.01273546 -32.23130605 113.95985278 -33.98024344 113.90698504 C-34.77677144 113.878632 -35.57329944 113.85027896 -36.39396465 113.82106674 C-38.22773276 113.76727925 -40.06292095 113.76562838 -41.89744925 113.77585101 C-43.83637651 115.71477826 -43.02431341 118.64344492 -43.03297782 121.22418475 C-43.03095359 122.15252124 -43.02892936 123.08085773 -43.02684379 124.03732562 C-43.02859611 125.00961612 -43.03034842 125.98190661 -43.03215384 126.98366046 C-43.03657467 130.21518976 -43.03363333 133.44666485 -43.03026175 136.67819476 C-43.03093478 138.91399911 -43.0319048 141.14980339 -43.03316092 143.38560748 C-43.03463826 148.0790909 -43.03248242 152.77255534 -43.02782035 157.46603656 C-43.02212633 163.49345897 -43.02539978 169.52083682 -43.03139281 175.54825759 C-43.03500028 180.16778662 -43.03385892 184.78730502 -43.03126502 189.40683436 C-43.0305961 191.62967759 -43.03142298 193.85252176 -43.03374457 196.07536387 C-43.03627376 199.17859598 -43.03242654 202.28175521 -43.02684379 205.38498187 C-43.02988013 206.77445025 -43.02988013 206.77445025 -43.03297782 208.19198871 C-43.02874808 209.45606807 -43.02874808 209.45606807 -43.0244329 210.74568439 C-43.02405587 211.47997637 -43.02367885 212.21426835 -43.0232904 212.97081161 C-43.00639659 214.8778941 -43.00639659 214.8778941 -41.89744925 216.77585101 C-40.84579392 216.73491509 -39.79413859 216.69397918 -38.71061492 216.65180278 C-12.8685832 215.65786182 12.96884638 214.9671471 38.82719636 214.57639384 C51.33538212 214.38068068 63.82777442 214.09287762 76.32716012 213.57663226 C167.69828377 209.88355946 167.69828377 209.88355946 192.86396623 232.19409633 C204.36460444 242.8926658 216.95316545 256.64648847 222.48887277 271.49420428 C221.97451968 275.86342227 220.10952416 277.52811827 217.10318017 280.61833835 C215.06311024 282.81838432 213.51607329 285.04045628 211.90928292 287.57037616 C198.68945641 307.94020807 182.21108193 325.10321675 157.90146035 330.55221432 C129.50495804 336.27171192 100.20060421 336.38019218 71.34978461 336.3883841 C67.71883672 336.400881 64.08963243 336.44475128 60.45909142 336.49954867 C0.87436808 337.378938 -49.95148249 334.3540833 -94.40332389 291.25335956 C-100.62815929 285.08304681 -106.47283331 278.58589239 -112.20994925 271.96335101 C-112.77572653 271.31094219 -113.3415038 270.65853337 -113.92442584 269.98635459 C-128.49363074 253.10668013 -141.70353536 235.44134349 -153.89744925 216.77585101 C-154.55744925 215.78585101 -155.21744925 214.79585101 -155.89744925 213.77585101 C-156.11839263 210.79867742 -156.22232811 207.91274647 -156.23558402 204.93332171 C-156.24712012 204.02889834 -156.25865623 203.12447497 -156.27054191 202.19264483 C-156.30489636 199.1956232 -156.32336224 196.19880775 -156.3388555 193.20163226 C-156.34575841 192.17730783 -156.35266131 191.15298339 -156.3597734 190.09761882 C-156.39563095 184.67436192 -156.41915721 179.25120934 -156.43284965 173.82785296 C-156.44938286 168.23323762 -156.50778025 162.63988956 -156.5759933 157.04569983 C-156.62083804 152.73815778 -156.6343487 148.4309175 -156.639467 144.12316203 C-156.64735052 142.06149939 -156.66696515 139.99984604 -156.69869018 137.93841243 C-156.95975731 119.77311557 -156.95975731 119.77311557 -152.63743949 114.73947406 C-150.71542716 113.10072589 -150.71542716 113.10072589 -148.89744925 111.77585101 C-148.09629691 110.94247211 -147.29514457 110.1090932 -146.46971488 109.25046039 C-145.39753715 108.195685 -145.39753715 108.195685 -144.30369925 107.11960101 C-143.09907035 105.92657367 -143.09907035 105.92657367 -141.8701055 104.70944476 C-140.221668 103.08704893 -138.5732305 101.46465309 -136.924793 99.84225726 C-133.3773121 96.32894151 -129.8822363 92.83124645 -126.64744925 89.02585101 C-120.71844343 82.11900683 -114.04474058 75.87079956 -107.57664847 69.47555804 C-98.78616759 60.78834648 -98.78616759 60.78834648 -90.51268363 51.61374164 C-86.65693564 47.22648788 -82.37875085 43.22170893 -78.2138555 39.13131976 C-77.50100394 38.42620257 -76.78815238 37.72108539 -76.05369925 36.99460101 C-75.42270316 36.37520648 -74.79170707 35.75581195 -74.14158988 35.11764789 C-69.42337376 30.1941134 -65.14195473 25.16435434 -61.28384757 19.53474689 C-45.58031623 -1.39975898 -24.27941988 0.19531499 0 0 Z " fill="#FEFEFE" transform="translate(1442.8974492549896,833.2241489887238)"/>
<path d="M0 0 C20.21848586 10.01220159 42.17059598 30.03261284 51 51 C60.82091747 81.4416373 56.44739506 118.10362271 55.11874592 149.53974831 C54.60074862 162.04551342 54.38742691 174.55156281 54.1932615 187.06587732 C53.78865842 212.72376182 53.02142158 238.35975574 52 264 C65.28187409 264.02312079 78.56374343 264.04091374 91.84563351 264.05181217 C98.0122492 264.05704158 104.17885118 264.06414027 110.34545898 264.07543945 C116.29116006 264.08626629 122.23684789 264.0922764 128.18255806 264.09487724 C130.45646943 264.09673186 132.73038004 264.10035317 135.00428581 264.10573006 C138.1772712 264.11293778 141.35020117 264.11399106 144.52319336 264.11352539 C145.94846344 264.1189183 145.94846344 264.1189183 147.40252686 264.12442017 C151.52637235 264.54226142 151.52637235 264.54226142 155 263 C154.99698049 260.38024237 154.9273892 257.7905212 154.81503296 255.17459106 C154.75041479 253.44583347 154.68585818 251.71707358 154.62135315 249.98831177 C154.58467592 249.05614964 154.5479987 248.1239875 154.51021004 247.16357803 C153.67158283 225.65919944 153.18451061 204.153456 152.83086205 182.6361866 C152.61913403 170.20519098 152.31355567 157.79032639 151.78027344 145.36865234 C147.96477155 54.5655823 147.96477155 54.5655823 170.74962044 28.94064903 C196.53272372 1.27415975 196.53272372 1.27415975 210.09746933 -0.37704849 C213.439314 0.05706836 214.41311924 0.7204859 216.74575806 3.08285522 C219.62055042 5.80439384 222.4556021 8.06400147 225.79452515 10.19326782 C246.16435421 23.41309249 263.32737097 39.89146967 268.77636278 64.20109093 C274.49589707 92.59780009 274.6035957 121.90189946 274.61240864 150.75289059 C274.62503008 154.38365288 274.66910065 158.01266097 274.72414398 161.643013 C275.60863504 221.2685036 272.55917111 272.07345207 229.43186378 316.55151939 C223.25594254 322.78196604 216.75302812 328.63210446 210.125 334.375 C209.4716269 334.94174155 208.8182538 335.5084831 208.14508152 336.09239864 C160.66411577 377.08484426 160.66411577 377.08484426 144.08740234 377.22460938 C143.16361786 377.23599945 142.23983337 377.24738953 141.28805542 377.25912476 C131.61677546 377.36982254 121.94472933 377.41721697 112.27294922 377.45996094 C107.68467774 377.48222858 103.09722057 377.5239847 98.50927734 377.58300781 C92.96961184 377.65413685 87.43071227 377.69079959 81.89061356 377.70307922 C79.78148713 377.71347388 77.67238359 377.73588391 75.56351852 377.77067566 C72.60443062 377.8169636 69.64833551 377.81887253 66.68896484 377.81054688 C65.82319824 377.83414276 64.95743164 377.85773865 64.06542969 377.88204956 C57.98443846 377.79955651 55.00286322 376.00645587 50.68288612 371.76673126 C50.1275337 371.18370995 49.57218128 370.60068863 49 370 C48.07574219 369.10796875 47.15148437 368.2159375 46.19921875 367.296875 C45.37035156 366.45640625 44.54148437 365.6159375 43.6875 364.75 C43.00046997 364.05729004 43.00046997 364.05729004 42.29956055 363.35058594 C40.38358083 361.41860435 38.47378835 359.48055216 36.56347656 357.54296875 C30.02960136 350.8880918 30.02960136 350.8880918 23.125 344.625 C16.45689663 338.92112339 10.43576201 332.48841945 4.27246094 326.25195312 C-3.15558868 318.65558685 -3.15558868 318.65558685 -11 311.5 C-17.63584473 305.85188059 -23.60716179 299.44498609 -29.72753906 293.25195312 C-37.28844248 285.53972125 -37.28844248 285.53972125 -45.25 278.25 C-45.81414989 277.75007097 -46.37829979 277.25014194 -46.95954514 276.73506355 C-48.98551838 274.95654266 -48.98551838 274.95654266 -51.27058792 273.41518974 C-56.29931098 269.40924487 -58.49088247 265.8522461 -59.23707914 259.57032704 C-59.58043878 255.06563813 -59.72021679 250.56680299 -59.83105469 246.05126953 C-59.91210708 244.0143682 -59.99626666 241.97758851 -60.08328247 239.94093323 C-60.34959389 233.25629689 -60.51800459 226.57085656 -60.671875 219.8828125 C-60.69960526 218.7364512 -60.72733553 217.5900899 -60.75590611 216.40899038 C-61.01654536 205.54203614 -61.24216867 194.67491363 -61.38160324 183.80568123 C-61.54427009 171.26375734 -61.80293319 158.74290119 -62.34179688 146.2109375 C-66.19787344 54.73706872 -66.19787344 54.73706872 -43.28039932 28.87692833 C-13.24442026 -3.44925964 -13.24442026 -3.44925964 0 0 Z " fill="#FEFEFE" transform="translate(895,332)"/>
<path d="M0 0 C32.49879242 7.84263787 60.22405082 39.99176473 82.80817127 62.82629597 C86.16510995 66.2201 89.54953256 69.58179254 92.96485615 72.916834 C135.64852356 114.60177249 168.36912268 152.87609036 169.4812727 214.69767964 C169.54529197 223.59310398 169.11228051 232.45342663 168.52262211 241.32676518 C168.43675468 242.63776865 168.43675468 242.63776865 168.34915257 243.97525704 C167.11213602 262.27453321 165.02155083 280.4366796 161.68546391 298.47544682 C161.46302006 299.69439452 161.24057621 300.91334221 161.01139164 302.16922772 C159.14123765 311.50774431 155.48370446 316.92336318 148.84488773 323.51328862 C147.96119762 324.40223568 147.96119762 324.40223568 147.05965519 325.30914128 C145.12520288 327.25234399 143.18358916 329.1882006 141.24137211 331.12364018 C139.88874403 332.47761646 138.53641289 333.83188944 137.18436527 335.18644536 C134.35650925 338.01724327 131.52508415 340.84440879 128.69107914 343.66905034 C125.05934058 347.28937314 121.43668382 350.91863005 117.81663609 354.55063832 C115.02873337 357.3457662 112.23608702 360.13611538 109.44197941 362.92503941 C108.10407042 364.26161486 106.76764381 365.59967587 105.43273258 366.93924534 C103.56840365 368.80865258 101.69778505 370.67153014 99.82535648 372.53281987 C99.27562672 373.0865981 98.72589695 373.64037632 98.15950871 374.21093571 C93.73402699 378.58776428 90.86747676 380.49269488 84.62067509 380.58070195 C83.03669926 380.6100684 83.03669926 380.6100684 81.42072392 380.64002812 C80.26664036 380.65153904 79.1125568 380.66304997 77.92350101 380.67490971 C76.70314152 380.69470891 75.48278202 380.7145081 74.22544193 380.73490727 C70.87255231 380.78732203 67.51976005 380.83107574 64.16671133 380.87091124 C60.62789052 380.91490039 57.08923445 380.96960675 53.55054569 381.02302372 C47.58021381 381.11163975 41.60981986 381.19310762 35.63932133 381.26963627 C27.33010349 381.37616252 19.02111906 381.49602783 10.7121222 381.61842763 C4.86500981 381.70399605 -0.98215288 381.7860482 -6.82932234 381.86761057 C-8.22088444 381.88705365 -9.61244503 381.90660452 -11.004004 381.92627013 C-12.35388873 381.94532304 -13.7037769 381.96413357 -15.0536685 381.98269373 C-17.03351094 382.01043024 -19.01332045 382.04048637 -20.99312878 382.07055962 C-23.58344057 382.09838518 -26.17405879 382.10558018 -28.76448345 382.09181321 C-35.15330235 382.07442009 -41.20199067 382.34511787 -47.51567745 383.35769475 C-59.71770549 384.98169647 -68.64763657 384.20933152 -78.58605099 376.90250981 C-87.52541266 369.97647465 -95.64020588 362.09134211 -103.69798899 354.17697656 C-106.14759001 351.77809768 -108.61568316 349.39994844 -111.09067822 347.02729428 C-119.78828625 338.68423813 -128.39855187 330.2606296 -136.94222164 321.76011479 C-143.9413891 314.80059949 -151.05422559 307.989151 -158.29866695 301.28550541 C-224.21860079 240.19040163 -224.21860079 240.19040163 -226.24633121 204.9497844 C-227.57723075 166.68222245 -227.57723075 166.68222245 -219.43874359 155.9982444 C-206.12022066 145.84195326 -174.82493759 148.14107532 -159.11253166 150.08601201 C-123.04626436 155.75844243 -95.22067878 194.68598344 -72.20106041 220.18081486 C-63.17076275 230.16693573 -53.88759454 239.90831826 -44.60042477 249.65489018 C-35.12850243 259.60549614 -25.68148371 269.57208784 -16.39820004 279.69932377 C-14.98575954 281.23434144 -13.57318573 282.76923645 -12.1604681 284.30399907 C-9.54441529 287.14680293 -6.94622952 290.00455693 -4.35723019 292.87199223 C-3.20110148 294.13047748 -2.04434645 295.38838776 -0.8868475 296.64561284 C-0.37602822 297.22147318 0.13479107 297.79733353 0.66108972 298.39064419 C2.85653916 300.74933778 4.27806137 302.15672908 7.4914465 302.77704728 C10.13456466 302.19874895 11.15412891 301.57306645 13.05590153 299.67840397 C13.64335148 299.10505314 14.23080143 298.53170231 14.83605289 297.94097722 C15.46327747 297.30363148 16.09050205 296.66628575 16.73673344 296.00962651 C17.41045994 295.3446616 18.08418644 294.6796967 18.7783289 293.99458134 C21.00402344 291.79091067 23.21091 289.5694286 25.41715336 287.34629643 C26.95627284 285.81054416 28.49613397 284.27553485 30.03670597 282.74123967 C33.2634399 279.52188122 36.48094665 276.29364187 39.69229984 273.05894291 C43.81269782 268.91005823 47.95513355 264.78402266 52.10473442 260.66437066 C55.28873964 257.4984193 58.46075626 254.32067221 61.62925625 251.13920987 C63.15224532 249.61288156 64.67896787 248.09026931 66.20942974 246.57143414 C68.34543929 244.44810034 70.46479918 242.30943709 72.58048344 240.16587651 C73.21782917 239.53865193 73.8551749 238.91142735 74.51183414 238.26519597 C75.08518497 237.67774601 75.6585358 237.09029606 76.2492609 236.4850446 C76.75159654 235.98082384 77.25393217 235.47660307 77.7714901 234.95710289 C79.34495434 232.45283489 79.39737088 231.17683785 78.83512211 228.26426518 C77.01942332 226.12764221 75.2969811 224.38782168 73.21646976 222.54229558 C72.61210402 221.98586957 72.00773827 221.42944357 71.3850584 220.85615617 C70.05660597 219.63575093 68.72248352 218.42149676 67.38356113 217.21258748 C64.43864734 214.55301527 61.5214082 211.86381306 58.60187626 209.17644358 C57.02621609 207.72660604 55.44913118 206.2783156 53.87073612 204.83145595 C43.65588199 195.45900121 33.63132679 185.8852379 23.59525013 176.32220912 C13.84979839 167.03866351 4.05775357 157.82484312 -5.93245602 148.80454838 C-72.30129537 88.7619575 -72.30129537 88.7619575 -74.32558346 53.77935517 C-74.84772704 38.90892976 -74.73062675 20.25610519 -69.16487789 6.26426518 C-55.88624012 -7.26424947 -17.09848447 -3.46958142 0 0 Z " fill="#FEFEFE" transform="translate(670.1648778915405,446.7357348203659)"/>
<path d="M0 0 C0.8897049 -0.01460266 1.77940979 -0.02920532 2.69607544 -0.04425049 C10.92407405 -0.17050364 19.15304672 -0.23907067 27.3818121 -0.29209328 C32.90744308 -0.32779964 38.43161155 -0.38096223 43.95654297 -0.47753906 C49.30177118 -0.57069109 54.64570714 -0.61906855 59.99170113 -0.63648605 C62.02306348 -0.65052798 64.05438358 -0.68004846 66.08527946 -0.72578812 C83.94880151 -1.10827874 83.94880151 -1.10827874 90.79858398 4.37744141 C92.37937944 5.96147101 93.92162212 7.58553847 95.41040039 9.25634766 C96.66600609 10.4532802 97.9267969 11.6448136 99.19433594 12.82910156 C100.31703758 13.958651 101.43462165 15.09330925 102.54711914 16.23291016 C103.46084038 17.15443375 103.46084038 17.15443375 104.39302063 18.09457397 C106.29962247 20.01865747 108.19926207 21.94940842 110.09790039 23.88134766 C112.6191988 26.43945568 115.14376635 28.99427416 117.67211914 31.54541016 C118.57811356 32.45978851 118.57811356 32.45978851 119.50241089 33.39263916 C122.98643103 36.88857989 126.55329663 40.19926655 130.31982422 43.390625 C136.19366096 48.63269675 141.60600528 54.40679014 147.13793945 60.00439453 C154.56598907 67.60076081 154.56598907 67.60076081 162.41040039 74.75634766 C169.04624512 80.40446707 175.01756218 86.81136157 181.13793945 93.00439453 C187.38336045 99.31727601 193.61352729 105.5286456 200.41040039 111.25634766 C202.44037911 113.28632638 201.7538903 117.41613078 201.86038208 120.20910645 C201.89580923 121.0533519 201.93123638 121.89759736 201.96773708 122.76742601 C202.08489294 125.62095194 202.19370324 128.47471975 202.30151367 131.32861328 C202.34057579 132.32546961 202.37963791 133.32232594 202.41988373 134.34939003 C203.19282121 154.19325771 203.66391134 174.04208791 204.0313282 193.89723969 C204.27104796 206.52569833 204.60164452 219.13819885 205.16186523 231.75683594 C209.18119372 324.04763799 209.18119372 324.04763799 187.14533043 348.74411774 C176.96470526 359.60511854 165.04210344 368.4637812 152.41040039 376.25634766 C151.42040039 376.91634766 150.43040039 377.57634766 149.41040039 378.25634766 C135.82339484 378.59416195 121.3420383 363.08227652 111.94086754 354.25957978 C90.94359619 333.75335433 87.76489131 311.26742049 87.34493256 282.81655121 C87.21077759 264.78774022 87.61973228 246.80118977 88.36368108 228.788625 C88.87015621 216.27548589 89.07824916 203.76210886 89.26746249 191.24079394 C89.66181184 165.56669432 90.41168726 139.91357157 91.41040039 114.25634766 C89.13816163 113.12022827 87.90274628 113.13065921 85.38023376 113.12936401 C84.1161544 113.12513428 84.1161544 113.12513428 82.82653809 113.12081909 C81.90022583 113.12284332 80.97391357 113.12486755 80.01953125 113.12695312 C79.04548843 113.12520081 78.07144562 113.12344849 77.06788635 113.12164307 C73.83698768 113.11722914 70.6061434 113.12016072 67.37524414 113.12353516 C65.1384734 113.12286204 62.90170274 113.12189195 60.66493225 113.12063599 C55.97322901 113.11915968 51.28154478 113.12131163 46.58984375 113.12597656 C40.56123055 113.13167709 34.53266183 113.12839236 28.50405025 113.1224041 C23.88456382 113.11879948 19.26508802 113.11993655 14.64560127 113.12253189 C12.42193153 113.12320127 10.19826084 113.12237237 7.97459221 113.12005234 C4.87366024 113.11752709 1.77280148 113.12136445 -1.328125 113.12695312 C-2.72062973 113.12391678 -2.72062973 113.12391678 -4.14126587 113.12081909 C-8.18633903 112.72345195 -8.18633903 112.72345195 -11.58959961 114.25634766 C-11.59102666 116.89304991 -11.5259011 119.50008665 -11.41809082 122.13317871 C-11.35641035 123.87335572 -11.29477221 125.61353423 -11.23316956 127.35371399 C-11.19804323 128.29201868 -11.16291691 129.23032337 -11.12672615 130.19706154 C-10.3239019 151.83199441 -9.86063628 173.46824713 -9.524086 195.11493683 C-9.32249542 207.62147494 -9.03060445 220.11327121 -8.52075195 232.61132812 C-4.86963623 324.04650284 -4.86963623 324.04650284 -26.87895966 348.67723846 C-37.06556363 359.53527645 -48.97617046 368.42749331 -61.58959961 376.25634766 C-62.57959961 376.91634766 -63.56959961 377.57634766 -64.58959961 378.25634766 C-77.54270589 378.63351968 -90.86783033 363.83996021 -99.87328911 355.48872948 C-128.47178139 328.14820802 -130.44663289 293.23705099 -131.54501867 255.50105238 C-131.72582459 247.25538276 -131.71252104 239.01069735 -131.67279816 230.76358795 C-131.64995909 225.95077445 -131.66902368 221.14119576 -131.72856903 216.3286972 C-132.46577114 156.51154055 -128.85572403 105.97678191 -85.68213558 61.39796734 C-79.45251179 55.10412283 -72.89754029 49.18748583 -66.21459961 43.38134766 C-65.55549922 42.80838597 -64.89639882 42.23542428 -64.21732569 41.64510012 C-16.30882823 0.20347047 -16.30882823 0.20347047 0 0 Z " fill="#FEFEFE" transform="translate(958.589599609375,1286.74365234375)"/>
<path d="M0 0 C6.02142441 0.0362241 12.0388814 -0.01267466 18.05988932 -0.08201146 C76.42109353 -0.68638026 125.52227126 3.68026103 168.91125011 45.67903233 C175.14702243 51.84899517 181.00595175 58.34355076 186.75366974 64.96695709 C187.32069878 65.6200427 187.88772782 66.27312831 188.47193956 66.94600439 C229.46337659 114.39772044 229.46337659 114.39772044 229.60327911 131.02042389 C229.61466919 131.94581467 229.62605927 132.87120544 229.63779449 133.82463837 C229.74843824 143.50731773 229.79587526 153.19076112 229.83863068 162.87393951 C229.86090978 167.46904573 229.90268318 172.0633403 229.96167755 176.6581192 C230.03275011 182.20426379 230.06946071 187.74964417 230.08174896 193.29622078 C230.09215236 195.4089646 230.11458313 197.52168519 230.1493454 199.63416862 C230.19556017 202.59585648 230.19755088 205.55454901 230.18921661 208.51651764 C230.2128125 209.38587952 230.23640839 210.25524139 230.2607193 211.15094757 C230.1947348 216.00681213 229.50858262 218.47959403 226.02332306 221.96385956 C224.80944361 223.00772855 223.59457572 224.05044933 222.37866974 225.09195709 C221.31572472 226.28161535 220.27123924 227.48826217 219.25366974 228.71695709 C213.44094231 235.45089802 206.95348137 241.57081644 200.63062286 247.81949615 C193.03425659 255.24754577 193.03425659 255.24754577 185.87866974 263.09195709 C180.23055033 269.72780182 173.82365583 275.69911888 167.63062286 281.81949615 C160.03965868 289.24129425 160.03965868 289.24129425 152.89038849 297.08023834 C147.70950374 303.16797749 141.87200958 308.66440942 136.19116974 314.27945709 C133.86139517 316.58249289 131.53506206 318.88892798 129.21070099 321.19742584 C128.68458725 321.71524124 128.15847351 322.23305664 127.61641693 322.76656342 C125.31133603 325.05634382 123.16739606 327.3566653 121.13916779 329.8978653 C119.37866974 332.09195709 119.37866974 332.09195709 117.37866974 333.09195709 C114.69729264 333.29622681 112.03611472 333.44298586 109.35034943 333.54866791 C108.08988328 333.60286698 108.08988328 333.60286698 106.80395317 333.65816098 C103.96968727 333.7774736 101.13517839 333.88872741 98.30054474 333.99893951 C97.30944576 334.03880163 96.31834679 334.07866375 95.29721451 334.11973381 C75.569956 334.90790866 55.83766466 335.38940739 36.09860992 335.76469707 C23.54721857 336.00951123 11.01254145 336.34705641 -1.52855682 336.91886139 C-93.23052527 341.02042837 -93.23052527 341.02042837 -118.40703583 318.49093723 C-128.0425211 309.44403866 -146.6674973 291.88491036 -147.8682003 278.2985363 C-146.77485548 264.09715011 -126.91050811 246.15926925 -116.78054929 237.15204263 C-85.57452904 210.63636252 -36.72911447 218.39210226 1.41649413 220.02975392 C13.85208231 220.55353095 26.28826744 220.77939268 38.73256326 220.98392177 C59.95309858 221.33573212 81.15973105 221.87888122 102.36698151 222.71331024 C103.24787001 222.7461787 104.1287585 222.77904716 105.03634059 222.81291163 C106.67061678 222.87399824 108.30474398 222.93926684 109.93865502 223.00944459 C111.75098584 223.07584515 113.56512413 223.08986682 115.37866974 223.09195709 C117.34295341 221.12767342 116.49890891 218.10898546 116.5030899 215.49448395 C116.49949463 214.54430389 116.49589935 213.59412384 116.49219513 212.61515045 C116.49241417 211.12263512 116.49241417 211.12263512 116.49263763 209.59996796 C116.49193805 206.29389047 116.48414353 202.98786855 116.47632599 199.68180084 C116.47446197 197.39636516 116.47303799 195.11092908 116.47203827 192.82549286 C116.46821181 186.79697322 116.45838044 180.7684775 116.44733429 174.73996735 C116.43712291 168.59362868 116.43254124 162.44728616 116.42749786 156.30094147 C116.41675828 144.23126947 116.39968033 132.16161527 116.37866974 120.09195709 C115.32701441 120.13289301 114.27535908 120.17382893 113.1918354 120.21600533 C87.34980369 121.20994628 61.51237411 121.90066101 35.65402412 122.29141426 C23.14583882 122.48712741 10.65344519 122.77491437 -1.84593964 123.29117584 C-93.23546946 126.98605704 -93.23546946 126.98605704 -118.38274574 104.46207237 C-128.02082744 95.40765046 -146.64977432 77.88031915 -147.87346935 64.29215145 C-146.7296998 49.77522405 -125.02495279 31.04564745 -114.43627167 21.94400787 C-83.88568425 -3.42048446 -37.49827399 -0.23020367 0 0 Z " fill="#FEFEFE" transform="translate(479.62133026123047,826.9080429077148)"/>
<path d="M0 0 C3.65319327 2.13012076 4.57547223 3.73889492 5.90555096 7.69003582 C11.57762322 29.41871687 14.30162965 58.96369312 3.69717693 79.52623653 C-12.14524044 106.24887581 -38.64806113 127.64536153 -61.41847265 148.26514733 C-71.47471994 157.38439471 -81.29794238 166.74454681 -91.12304688 176.11132812 C-94.57288532 179.39813443 -98.02426727 182.68330458 -101.47776794 185.96626282 C-102.31280332 186.76012683 -103.1478387 187.55399085 -104.00817817 188.37191135 C-109.75531582 193.82289601 -115.56085751 199.20627169 -121.39588928 204.56291199 C-123.68430885 206.67386231 -125.97186871 208.7857408 -128.2592926 210.89776993 C-130.38538162 212.85090806 -132.5265557 214.78646258 -134.66868591 216.7219696 C-135.93445922 217.88932737 -137.19949115 219.05748973 -138.46363831 220.22660828 C-139.04630244 220.74268274 -139.62896658 221.25875721 -140.22928721 221.7904703 C-141.99952204 223.38084595 -141.99952204 223.38084595 -144 226 C-144.01677904 228.94410561 -143.48440002 230.30784726 -141.81332016 232.69563103 C-141.31190632 233.20115061 -140.81049248 233.70667019 -140.29388428 234.22750854 C-139.43179604 235.11085121 -139.43179604 235.11085121 -138.55229187 236.01203918 C-137.91854141 236.64083481 -137.28479095 237.26963043 -136.63183594 237.91748047 C-135.96672501 238.59281326 -135.30161407 239.26814606 -134.61634827 239.96394348 C-132.41594969 242.1921325 -130.2010116 244.40515971 -127.984375 246.6171875 C-126.45034184 248.15899288 -124.91675813 249.70124557 -123.38360596 251.243927 C-120.16894026 254.4735155 -116.94663226 257.69524251 -113.71923828 260.91210938 C-109.5781643 265.04157544 -105.46030346 269.19336158 -101.3482933 273.3517437 C-98.18804704 276.54140265 -95.01410999 279.71715395 -91.83600616 282.88901138 C-90.31144015 284.41460634 -88.79161503 285.94495393 -87.2766037 287.48003769 C-85.16031169 289.6209135 -83.02593583 291.74194229 -80.88574219 293.85888672 C-79.94726189 294.82029823 -79.94726189 294.82029823 -78.98982239 295.8011322 C-78.4038176 296.37310837 -77.81781281 296.94508453 -77.21405029 297.53439331 C-76.71112835 298.03765074 -76.20820641 298.54090816 -75.6900444 299.05941582 C-73.98121922 300.18809755 -73.98121922 300.18809755 -71.6575861 300.0127821 C-67.9719305 298.60821199 -65.83375863 296.13508055 -63.26457214 293.26109314 C-62.42781644 292.35326288 -62.42781644 292.35326288 -61.57415658 291.42709261 C-60.35183815 290.09881452 -59.1344659 288.7659722 -57.92140579 287.42923355 C-54.54172882 283.70622813 -51.12492019 280.01739559 -47.71537781 276.32176208 C-46.98791174 275.53104116 -46.26044568 274.74032024 -45.51093519 273.92563808 C-36.11591049 263.72613714 -26.53416208 253.70335248 -16.95729673 243.67490184 C-7.65967809 233.93755433 1.5707733 224.15521947 10.6105957 214.17749023 C70.80361298 147.86477555 70.80361298 147.86477555 104.8553381 145.88619709 C119.29533206 145.38385682 141.27239434 144.93489348 153.77106953 152.72774601 C162.27277522 161.39469857 160.5864959 185.67490248 160.62768555 197.2840271 C159.89486203 242.59835411 126.43112785 273.62587632 96.02194977 303.64722061 C92.65463935 306.97194585 89.32013431 310.32466812 86.0127182 313.70898056 C44.24880909 356.44031415 5.89523519 388.48980868 -55.91772842 389.70708847 C-64.9212238 389.78876988 -73.89138612 389.37332572 -82.875 388.8125 C-83.75944542 388.75865426 -84.64389084 388.70480852 -85.55513763 388.64933109 C-104.08920075 387.48840227 -122.50442411 385.46927352 -140.78466797 382.17504883 C-142.01669449 381.96495996 -143.24872101 381.7548711 -144.51808167 381.53841591 C-152.19442347 380.01145941 -156.67717451 377.70372679 -162 372 C-163.04950767 370.98691528 -164.10178593 369.97669054 -165.1572113 368.96977234 C-166.17948261 367.9532944 -167.19918706 366.93422963 -168.21655273 365.9128418 C-168.78182175 365.3493251 -169.34709076 364.78580841 -169.92948914 364.20521545 C-171.76668595 362.37236211 -173.60026943 360.53594493 -175.43359375 358.69921875 C-176.71999272 357.41349441 -178.00654001 356.12791847 -179.29322815 354.84248352 C-181.9733976 352.16378035 -184.6517698 349.48329671 -187.32885742 346.80151367 C-190.76431158 343.36032813 -194.20428269 339.92369827 -197.64558315 336.4883604 C-200.29557229 333.84197635 -202.94318564 331.19322579 -205.59007454 328.54374123 C-206.85844548 327.27470266 -208.12756119 326.00640802 -209.39742851 324.73886681 C-211.16378161 322.97504305 -212.92691508 321.2080637 -214.68920898 319.44018555 C-215.21538818 318.91603058 -215.74156738 318.39187561 -216.28369141 317.85183716 C-220.1294331 313.98340075 -221.11246391 312.18599611 -221.28125 306.78125 C-221.31806885 305.65090332 -221.3548877 304.52055664 -221.39282227 303.35595703 C-221.42819092 302.08349121 -221.46355957 300.81102539 -221.5 299.5 C-221.51956757 298.82467224 -221.53913513 298.14934448 -221.55929565 297.45355225 C-221.69370184 292.81150766 -221.81584734 288.16921046 -221.93426514 283.5267334 C-222.00007237 280.99721838 -222.07012202 278.46785099 -222.14111328 275.93847656 C-222.16325614 275.12541644 -222.185399 274.31235632 -222.20821285 273.47465801 C-222.25760041 271.67062459 -222.30850533 269.8666317 -222.36132526 268.0626955 C-222.49672117 263.09076916 -222.57082848 258.12925846 -222.52955627 253.15550232 C-222.49077522 241.98021404 -222.83113644 231.24013306 -224.50728238 220.1987105 C-229.18684054 189.24673946 -231.38928946 158.3082312 -212.0427345 131.8974123 C-196.81498182 111.91002874 -178.5921756 94.51517355 -160.32023412 77.3585 C-154.23495852 71.61228921 -148.37133008 65.69229568 -142.59399414 59.63745117 C-102.35693248 17.51532535 -62.10353174 -19.95116302 0 0 Z " fill="#FEFEFE" transform="translate(1396,449)"/>
<path d="M0 0 C15.46266058 -2.0319583 27.84488064 -1.87343606 40.70600867 7.78450048 C48.78033893 14.21364822 56.17812851 21.38731902 63.49866092 28.64874214 C65.91405954 31.0337333 68.35318493 33.39152008 70.80199707 35.74216455 C79.41432426 44.01072462 87.92881605 52.36703772 96.36184967 60.81828684 C103.26404629 67.73105626 110.28551003 74.48623415 117.44974029 81.12688059 C182.56853758 141.58048836 182.56853758 141.58048836 184.53735244 177.41330522 C185.83814709 217.08084312 185.83814709 217.08084312 178.09067428 226.60068697 C165.01452728 236.80871506 133.75926475 234.81262734 118.26567733 232.92874807 C95.10523196 229.31975134 78.935259 212.18119742 63.07474029 196.16740793 C62.26570692 195.35071902 61.45667354 194.5340301 60.623124 193.69259304 C50.57285739 183.48686054 40.85439817 172.99089649 31.23742902 162.37783772 C22.10974423 152.31945992 12.7368278 142.4986597 3.35989654 132.6732673 C-6.20160115 122.64490867 -15.7389564 112.60085265 -25.11709321 102.4004249 C-26.54339777 100.85480649 -27.9698416 99.30931658 -29.39643586 97.76396555 C-32.0413841 94.89816703 -34.66880081 92.01760963 -37.28727448 89.12762827 C-38.45344183 87.86203844 -39.62022704 86.59701754 -40.7877475 85.33267587 C-41.30673481 84.75001174 -41.82572212 84.1673476 -42.36043632 83.56702697 C-43.93874123 81.81333236 -43.93874123 81.81333236 -46.44088471 79.79631418 C-49.045868 79.77463585 -49.98641779 80.451475 -52.02908528 82.0014047 C-52.542901 82.51149171 -53.05671671 83.02157871 -53.5861026 83.5471229 C-54.18203721 84.1317077 -54.77797181 84.71629251 -55.39196503 85.31859201 C-56.03370667 85.96326425 -56.67544831 86.60793649 -57.33663666 87.27214426 C-58.021577 87.94861505 -58.70651734 88.62508585 -59.41221344 89.32205576 C-61.67575897 91.56218573 -63.92791426 93.81336535 -66.17916596 96.06584543 C-67.74496608 97.62454826 -69.31106607 99.1829499 -70.87745392 100.7410621 C-74.15845588 104.0086098 -77.43344755 107.28204719 -80.70480072 110.55925363 C-84.90606426 114.76642283 -89.12531005 118.9550343 -93.34966481 123.13900083 C-96.58809564 126.35163967 -99.81504546 129.57561923 -103.03877556 132.80300325 C-104.59023659 134.35276598 -106.1457065 135.89852582 -107.70516121 137.44024462 C-109.87954007 139.59259687 -112.03758311 141.76009728 -114.19210541 143.93230051 C-114.84396821 144.57090006 -115.495831 145.2094996 -116.16744721 145.86745065 C-116.74928269 146.46049494 -117.33111817 147.05353922 -117.93058503 147.66455454 C-118.44251562 148.17577262 -118.95444621 148.6869907 -119.48188984 149.21370023 C-120.59766275 150.75093345 -120.59766275 150.75093345 -120.45646012 152.64152139 C-118.91390834 155.91442404 -116.35098787 158.02637562 -113.70197785 160.40475839 C-113.09675767 160.96103554 -112.4915375 161.51731268 -111.86797732 162.09044671 C-110.5385566 163.31120559 -109.20577083 164.5283073 -107.87011826 165.74224466 C-104.15102036 169.12408615 -100.45851428 172.53480569 -96.76264679 175.94198984 C-95.97192587 176.66973403 -95.18120495 177.39747822 -94.36652279 178.14727527 C-83.27309371 188.37394101 -72.37712719 198.81018868 -61.46834195 209.23296255 C-52.60972138 217.68554765 -43.69558704 226.0586881 -34.61837494 234.27653879 C31.69332774 294.42481833 31.69332774 294.42481833 33.6729182 328.99217695 C34.98691726 367.32628071 34.98691726 367.32628071 26.83136928 378.07299703 C13.70821831 388.02582413 -17.93737482 385.1116309 -33.4181205 383.38830942 C-71.08817703 378.1526353 -101.27428903 343.03251183 -126.57500565 317.31416506 C-129.07504413 314.78705557 -131.59541098 312.28214116 -134.12353241 309.78314584 C-178.0253492 266.33350477 -212.55058264 224.22770303 -213.26739609 160.10274214 C-213.27093175 154.91287275 -213.13762115 149.73215031 -212.94088471 144.54631418 C-212.90882054 143.69335181 -212.87675637 142.84038945 -212.84372056 141.96157974 C-211.11252073 100.05860805 -202.58447115 60.95758445 -171.13497651 30.95634836 C-140.35484466 2.81640011 -140.35484466 2.81640011 -126.69714081 2.60013193 C-125.69464798 2.58192896 -124.69215516 2.56372598 -123.65928376 2.54497141 C-122.55418961 2.52986521 -121.44909546 2.514759 -120.31051362 2.49919504 C-119.14885178 2.47954187 -117.98718995 2.4598887 -116.79032624 2.43963999 C-113.58775962 2.38651737 -110.38516234 2.33776091 -107.18249667 2.29106206 C-103.79733364 2.24082491 -100.41225286 2.18552367 -97.0271579 2.13092417 C-91.30541439 2.0394087 -85.58362208 1.95171151 -79.86178315 1.86638254 C-73.34699415 1.76919679 -66.83230427 1.66683504 -60.31764579 1.56128395 C-53.97891916 1.45866353 -47.64014372 1.35942641 -41.30133927 1.26173967 C-38.64605153 1.22080061 -35.9907886 1.17876571 -33.33552659 1.13614076 C-32.07854336 1.11616092 -30.82156014 1.09618109 -29.52648652 1.0755958 C-27.65369239 1.04352675 -27.65369239 1.04352675 -25.74306405 1.01080984 C-23.22403905 0.97957836 -20.70467143 0.96917447 -18.18547356 0.9793939 C-12.01928856 0.98857389 -6.10455335 0.81864605 0 0 Z " fill="#FEFEFE" transform="translate(1367.4408847093582,1167.2036858201027)"/>
</svg>
